<svg xmlns="http://www.w3.org/2000/svg" width="24" height="24" viewBox="0 0 24 24">
    <g fill="none" fill-rule="nonzero">
        <path fill="#1789F2" d="M12 1.71c-1.39 0-2.74.27-4.009.807a10.313 10.313 0 0 0-3.275 2.208 10.249 10.249 0 0 0-2.208 3.276 10.223 10.223 0 0 0-.81 4.01c0 1.392.271 2.74.807 4.01a10.313 10.313 0 0 0 2.208 3.275c.946.946 2.05 1.69 3.276 2.208 1.271.539 2.62.81 4.011.81 1.39 0 2.74-.271 4.009-.808a10.313 10.313 0 0 0 3.275-2.208 10.249 10.249 0 0 0 2.208-3.275c.539-1.272.81-2.62.81-4.011s-.271-2.74-.807-4.009a10.313 10.313 0 0 0-2.208-3.276A10.249 10.249 0 0 0 16.01 2.52 10.223 10.223 0 0 0 12 1.71z"/>
        <path fill="#FFF" d="M12 1.71c-1.39 0-2.74.27-4.009.807a10.313 10.313 0 0 0-3.275 2.208 10.249 10.249 0 0 0-2.208 3.276 10.223 10.223 0 0 0-.81 4.01c0 1.392.271 2.74.807 4.01a10.313 10.313 0 0 0 2.208 3.275c.946.946 2.05 1.69 3.276 2.208 1.271.539 2.62.81 4.011.81 1.39 0 2.74-.271 4.009-.808a10.313 10.313 0 0 0 3.275-2.208 10.249 10.249 0 0 0 2.208-3.275c.539-1.272.81-2.62.81-4.011s-.271-2.74-.807-4.009a10.313 10.313 0 0 0-2.208-3.276A10.249 10.249 0 0 0 16.01 2.52 10.223 10.223 0 0 0 12 1.71zm0-1.687c6.622 0 11.988 5.367 11.988 11.989C23.988 18.633 18.622 24 12 24S.012 18.633.012 12.012C.012 5.39 5.378.023 12 .023zm4.238 11.965a.84.84 0 0 1-.267.616L10.45 17.78a.843.843 0 0 1-1.154-1.23l4.865-4.56-4.863-4.56A.843.843 0 0 1 10.452 6.2l5.521 5.175c.169.157.265.38.265.613z"/>
    </g>
</svg>
