<svg xmlns="http://www.w3.org/2000/svg" width="24" height="24" viewBox="0 0 24 24">
    <g fill="none" fill-rule="nonzero">
        <path fill="#1789F2" d="M12 1.71c1.39 0 2.74.27 4.009.807a10.313 10.313 0 0 1 3.275 2.208c.946.946 1.69 2.049 2.208 3.276.539 1.271.81 2.62.81 4.01 0 1.392-.271 2.74-.807 4.01a10.313 10.313 0 0 1-2.208 3.275 10.249 10.249 0 0 1-3.276 2.208c-1.271.539-2.62.81-4.011.81-1.39 0-2.74-.271-4.009-.808a10.313 10.313 0 0 1-3.275-2.208 10.249 10.249 0 0 1-2.208-3.275 10.223 10.223 0 0 1-.81-4.011c0-1.391.271-2.74.807-4.009a10.313 10.313 0 0 1 2.208-3.276A10.249 10.249 0 0 1 7.99 2.52c1.271-.538 2.62-.81 4.011-.81z"/>
        <path fill="#FFF" d="M12 1.71c1.39 0 2.74.27 4.009.807a10.313 10.313 0 0 1 3.275 2.208c.946.946 1.69 2.049 2.208 3.276.539 1.271.81 2.62.81 4.01 0 1.392-.271 2.74-.807 4.01a10.313 10.313 0 0 1-2.208 3.275 10.249 10.249 0 0 1-3.276 2.208c-1.271.539-2.62.81-4.011.81-1.39 0-2.74-.271-4.009-.808a10.313 10.313 0 0 1-3.275-2.208 10.249 10.249 0 0 1-2.208-3.275 10.223 10.223 0 0 1-.81-4.011c0-1.391.271-2.74.807-4.009a10.313 10.313 0 0 1 2.208-3.276A10.249 10.249 0 0 1 7.99 2.52c1.271-.538 2.62-.81 4.011-.81zm0-1.687C5.378.023.012 5.39.012 12.012.012 18.633 5.378 24 12 24s11.988-5.367 11.988-11.988C23.988 5.39 18.622.023 12 .023zM7.762 11.988a.84.84 0 0 0 .267.616l5.521 5.175a.843.843 0 0 0 1.154-1.23L9.84 11.99l4.863-4.56A.843.843 0 0 0 13.548 6.2l-5.521 5.175a.837.837 0 0 0-.265.613z"/>
    </g>
</svg>
